<?xml version="1.0" encoding="UTF-8"?>
<svg id="Ebene_1" data-name="Ebene 1" xmlns="http://www.w3.org/2000/svg" viewBox="0 0 50.19 55">
  <defs>
    <style>
      .cls-1 {
        fill: #fff;
      }
    </style>
  </defs>
  <path class="cls-1" d="M36.59,14.48l2.67.23C23.07,24.7,8.52,37.62.08,55h11.04c.36-.8,3.68-7.37,3.68-7.37,0-.02,2.21.02,2.2,0-.99,2.33-2.39,5.13-3.33,7.36h10.91c3.53-14.09,10.9-26.94,19.48-38.51l1.44,3.33,4.23-13.36-13.13,8.01ZM18.66,43.44l-2.2-.02s4.6-6.94,5.03-7.57h0s1.48.08,1.78.1l-4.62,7.49ZM26.2,32.13l-1.66-.15c.86-.94,4.39-4.61,4.39-4.61,0,0,.9.05,1.28.2l-4.01,4.56ZM32.4,25.43l-1.26-.1c.67-.55,3.14-2.54,3.67-2.95l1.05.14-3.45,2.91Z"/>
  <path class="cls-1" d="M31.02,15.79l2.15.18c-1.68,1.01-3.39,1.99-5.27,3.01-.18-.53-1.83-5.2-2.49-7.1l-5.08,14.36c-6.26,5.47-11.62,11.5-16.04,18.05-.44.6-.87,1.2-1.3,1.8L19.95.02c2.12-.06,9.8.01,10.84.01l5.09,12.79-4.86,2.97Z"/>
  <path class="cls-1" d="M50.11,55h-9.51l-6.75-19.08c1.86-3.58,3.99-7.21,6.41-10.9,1.18,3.6,3.2,9.58,4.33,13.19s2.11,6.37,3.37,10.11c.64,1.91.92,2.37,1.38,3.91.31,1.03.6,2.03.77,2.77Z"/>
</svg>