<?xml version="1.0" encoding="UTF-8"?>
<svg id="Ebene_1" data-name="Ebene 1" xmlns="http://www.w3.org/2000/svg" viewBox="0 0 172.62 55">
  <defs>
    <style>
      .cls-1 {
        fill: #fff;
      }
    </style>
  </defs>
  <path class="cls-1" d="M36.04,14.29l2.64.22C22.7,24.38,8.33,37.13,0,54.3h10.9c.35-.79,3.63-7.27,3.63-7.27,0-.02,2.18.02,2.17,0-.97,2.3-2.36,5.06-3.29,7.26h10.77c3.48-13.91,10.76-26.59,19.23-38.02l1.43,3.29,4.18-13.18-12.96,7.91ZM18.35,42.88l-2.17-.02s4.54-6.85,4.96-7.47h0s1.46.08,1.76.1l-4.56,7.39ZM25.79,31.72l-1.64-.15c.85-.93,4.34-4.55,4.34-4.55,0,0,.89.05,1.26.19l-3.96,4.5ZM31.91,25.11l-1.25-.1c.66-.54,3.1-2.51,3.62-2.92l1.04.14-3.41,2.88Z"/>
  <path class="cls-1" d="M30.54,15.59l2.12.18c-1.66,1-3.35,1.96-5.2,2.97-.17-.53-1.81-5.13-2.46-7.01l-5.02,14.17c-6.18,5.4-11.47,11.35-15.84,17.82-.43.59-.86,1.18-1.28,1.78L19.62.02c2.09-.06,9.68.01,10.7.01l5.03,12.63-4.8,2.93Z"/>
  <path class="cls-1" d="M110.33,29.68v2.86c-3.04-3.35-6.91-4.21-11.26-3.02-8.34,2.29-11.07,12.62-6.86,19.7,3.88,6.52,12.86,7.89,18.11,2.22v2.86h5.5v-24.62h-5.49ZM101.97,49.58c-8.04-1.28-7.91-14.3.62-15.22,11.01-1.19,10.31,16.97-.62,15.22Z"/>
  <path class="cls-1" d="M159.64,29.03c-7.38,0-13.32,6.15-12.97,13.6,1.47,16.79,25.33,16.2,25.95-.62,0-7.17-5.81-12.98-12.98-12.98ZM160.33,49.68c-9.51.79-10.13-14.19-1.48-15.33,9.67-1.27,10.82,14.55,1.48,15.33Z"/>
  <path class="cls-1" d="M69.45,29.68v24.62h-5.71v-2.86c-4.27,5.26-14.14,4.73-16.13-2.34-.24-.72-.36-1.47-.36-2.22v-17.2h5.71v15.79c-.06.67.5,1.9.69,2.31,1.64,2.78,6.36,2.23,8.44.15.55-.55,1.64-2.49,1.64-3.2v-15.05h5.71Z"/>
  <path class="cls-1" d="M127.36,29.68c.38.53,4.19,6.23,5.78,8.52l5.54-8.52h7.25l-8.97,12.24,9.25,12.38h-7.42l-5.71-7.91-5.93,7.91h-7.36l9.23-12.19-9.01-12.42h7.36Z"/>
  <path class="cls-1" d="M81.76,23.09v6.59h6.37v5.05h-6.37v11.98c-.03.65.53,1.46.7,1.72,1.09,1.68,4.01,1.09,5.68.81v5.05c-4.95.92-11.12,1.12-12.09-5.16,0,0,0-14.4,0-14.4h-3.74c0-.13,0-.26,0-.33v-4.73h3.74v-6.59h5.71Z"/>
  <path class="cls-1" d="M48.35,54.3h-8.35l-6.67-18.83c1.84-3.54,3.94-7.12,6.33-10.76,1.18,3.49,3.33,9.41,4.27,13.02,1,3.69.74,6.47,1.39,10.13.19,1.63.79,3.22,1.65,4.56.39.67.85,1.31,1.38,1.89Z"/>
</svg>